<svg xmlns="http://www.w3.org/2000/svg" width="40" height="40" viewBox="0 0 40 40">
  <circle cx="20" cy="20" r="4" fill="#7C3AED"/>
  <g>
    <path d="M20 6C20 6 15 7.5 13 12.5C13 11 14 9.5 15.5 9.5C17 9.5 18.5 10.5 19 12C19.5 10.5 21 9.5 22.5 9.5C24 9.5 25.5 10.5 26 12C27 7.5 20 6 20 6Z" fill="#FF9900"/>
    <path d="M20 6C20 6 15 7.5 13 12.5C13 11 14 9.5 15.5 9.5C17 9.5 18.5 10.5 19 12C19.5 10.5 21 9.5 22.5 9.5C24 9.5 25.5 10.5 26 12C27 7.5 20 6 20 6Z" fill="#0078D4" transform="rotate(-120 20 20)"/>
    <path d="M20 6C20 6 15 7.5 13 12.5C13 11 14 9.5 15.5 9.5C17 9.5 18.5 10.5 19 12C19.5 10.5 21 9.5 22.5 9.5C24 9.5 25.5 10.5 26 12C27 7.5 20 6 20 6Z" fill="#4285F4" transform="rotate(120 20 20)"/>
  </g>
</svg>
